<svg width="208" height="48" viewBox="0 0 208 48" fill="none" xmlns="http://www.w3.org/2000/svg">
<g clip-path="url(#clip0_210_65)">
<path d="M80.3976 11.7312C78.494 10.6176 76.3427 10.056 73.939 10.056C71.5352 10.056 69.384 10.6128 67.4852 11.7312C65.5865 12.8496 64.086 14.4528 62.9885 16.5504C61.891 18.648 61.3423 21.1584 61.3423 24.096C61.3423 27.0336 61.891 29.5344 62.9885 31.6272C64.086 33.72 65.5865 35.328 67.4852 36.4512C69.384 37.5744 71.5352 38.1312 73.939 38.1312C76.3427 38.1312 78.494 37.5744 80.3976 36.456C82.3012 35.3376 83.8017 33.7344 84.8992 31.6368C85.9966 29.544 86.5454 27.024 86.5454 24.0912C86.5454 21.1584 85.9966 18.6384 84.8992 16.5456C83.8017 14.448 82.3012 12.8448 80.3976 11.7264V11.7312ZM80.8492 29.5008C80.1645 30.9696 79.2273 32.0784 78.0327 32.832C76.8381 33.5856 75.4735 33.96 73.9341 33.96C72.3947 33.96 71.0399 33.5856 69.8501 32.832C68.6556 32.0784 67.7183 30.9696 67.0336 29.5008C66.3489 28.032 66.009 26.232 66.009 24.096C66.009 21.96 66.3489 20.16 67.0336 18.6912C67.7183 17.2224 68.6556 16.1136 69.8501 15.36C71.0447 14.6064 72.4045 14.232 73.9341 14.232C75.4638 14.232 76.8381 14.6064 78.0327 15.36C79.2273 16.1136 80.1645 17.2224 80.8492 18.6912C81.5339 20.16 81.8738 21.96 81.8738 24.096C81.8738 26.232 81.5339 28.032 80.8492 29.5008Z" fill="black"/>
<path d="M105.863 18.2208C104.561 17.4 103.095 16.992 101.468 16.992C100.225 16.992 99.2147 17.1984 98.428 17.6112C97.6462 18.024 97.0246 18.5136 96.573 19.08C96.1214 19.6464 95.7718 20.16 95.529 20.6208H95.2182V17.256H90.7651V45.4416H95.3153V34.5408H95.5338C95.7863 35.0112 96.1457 35.5296 96.607 36.0864C97.0683 36.648 97.6948 37.128 98.4815 37.5264C99.2681 37.9248 100.273 38.1264 101.497 38.1264C103.143 38.1264 104.615 37.7088 105.911 36.8784C107.208 36.048 108.228 34.8432 108.971 33.2592C109.714 31.68 110.083 29.7744 110.083 27.5424C110.083 25.3104 109.704 23.3664 108.946 21.7968C108.189 20.2272 107.164 19.032 105.863 18.216V18.2208ZM104.877 31.0464C104.484 32.088 103.906 32.9088 103.143 33.504C102.376 34.0992 101.439 34.3968 100.322 34.3968C99.205 34.3968 98.3066 34.1088 97.5491 33.5376C96.7867 32.9616 96.2088 32.16 95.8155 31.1232C95.4173 30.0864 95.223 28.8864 95.223 27.5136C95.223 26.1408 95.4173 24.96 95.8106 23.9424C96.204 22.9248 96.777 22.1328 97.5345 21.5712C98.2921 21.0096 99.2244 20.7312 100.327 20.7312C101.429 20.7312 102.41 21.024 103.168 21.6144C103.93 22.2 104.503 23.0064 104.891 24.024C105.28 25.0416 105.474 26.2032 105.474 27.5136C105.474 28.824 105.28 30.0096 104.887 31.0512L104.877 31.0464Z" fill="black"/>
<path d="M129.128 19.4304C128.254 18.6 127.259 17.9856 126.132 17.5872C125.005 17.1936 123.825 16.992 122.597 16.992C120.635 16.992 118.926 17.4384 117.474 18.3312C116.022 19.224 114.89 20.472 114.084 22.0752C113.278 23.6784 112.875 25.5264 112.875 27.6288C112.875 29.7312 113.278 31.6224 114.084 33.2016C114.89 34.7808 116.036 36.0048 117.527 36.8736C119.018 37.7424 120.795 38.1744 122.869 38.1744C124.432 38.1744 125.831 37.9344 127.055 37.4544C128.279 36.9744 129.293 36.3024 130.095 35.4384C130.896 34.5744 131.445 33.5664 131.741 32.4096L127.472 31.8336C127.239 32.4384 126.904 32.9472 126.472 33.3552C126.04 33.7632 125.52 34.0704 124.918 34.2768C124.316 34.4784 123.651 34.584 122.922 34.584C121.805 34.584 120.834 34.3488 120.004 33.8784C119.173 33.408 118.532 32.7216 118.071 31.8288C117.634 30.9792 117.411 29.9616 117.386 28.7808H131.95V27.3264C131.95 25.512 131.697 23.952 131.192 22.6416C130.687 21.3312 129.998 20.2656 129.128 19.4304ZM117.396 25.6272C117.449 24.792 117.663 24.0192 118.047 23.2992C118.479 22.4832 119.091 21.8256 119.877 21.3216C120.664 20.8176 121.587 20.568 122.65 20.568C123.631 20.568 124.491 20.7888 125.224 21.2304C125.957 21.672 126.53 22.272 126.938 23.0304C127.346 23.7888 127.55 24.6576 127.55 25.6272H117.396Z" fill="black"/>
<path d="M150.14 17.8896C149.077 17.2944 147.839 16.9968 146.416 16.9968C144.857 16.9968 143.565 17.328 142.526 17.9952C141.492 18.6624 140.734 19.56 140.258 20.6928H140.001V17.2608H135.655V37.7568H140.205V25.68C140.205 24.6576 140.399 23.784 140.793 23.0592C141.186 22.3344 141.72 21.7824 142.405 21.4032C143.089 21.024 143.876 20.8368 144.77 20.8368C146.076 20.8368 147.101 21.2352 147.844 22.032C148.587 22.8288 148.956 23.9376 148.956 25.3632V37.7616H153.506V24.7248C153.506 23.0592 153.21 21.6576 152.622 20.5104C152.034 19.3632 151.209 18.4896 150.145 17.8944L150.14 17.8896Z" fill="black"/>
<path d="M163.009 26.0304H175.144V22.1184H163.009V14.3376H176.062V10.4304H158.337V37.7568H176.184V33.8496H163.009V26.0304Z" fill="black"/>
<path d="M195.598 11.5968C194.166 10.8192 192.384 10.4304 190.252 10.4304H180.088V37.7616H184.759V28.3776H190.213C192.345 28.3776 194.132 27.9888 195.574 27.2112C197.016 26.4336 198.099 25.368 198.832 24.0144C199.566 22.6608 199.935 21.1248 199.935 19.3968C199.935 17.6688 199.571 16.1472 198.842 14.7936C198.114 13.44 197.031 12.3744 195.603 11.5968H195.598ZM194.598 22.0464C194.209 22.8144 193.612 23.424 192.801 23.8656C191.99 24.312 190.936 24.5328 189.645 24.5328H184.755V14.3232H189.616C190.922 14.3232 191.98 14.5392 192.796 14.9712C193.612 15.4032 194.209 15.9984 194.598 16.7664C194.986 17.5296 195.181 18.408 195.181 19.3968C195.181 20.3856 194.986 21.2784 194.598 22.0464Z" fill="black"/>
<path d="M207.996 10.4304H203.324V37.7616H207.996V10.4304Z" fill="black"/>
<path d="M41.4513 7.02239C37.581 3.19679 32.7201 0.93599 27.6746 0.23519C25.4214 -0.0768098 23.139 -0.0768098 20.8907 0.23519C15.8452 0.93119 10.9745 3.19199 7.10422 7.02239C3.23392 10.848 0.9467 15.648 0.237711 20.6304C-0.0779349 22.8624 -0.0779349 25.1376 0.237711 27.3696C0.9467 32.352 3.23392 37.1568 7.10422 40.9776C10.9697 44.8032 15.8258 47.064 20.8664 47.7648C21.9978 47.9232 23.1439 48 24.2802 48C25.4165 48 26.5626 47.9184 27.694 47.7648C32.7298 47.064 37.5859 44.8032 41.4513 40.9776C45.3168 37.1568 47.604 32.3568 48.313 27.3792C48.6286 25.1424 48.6286 22.8624 48.3081 20.6208C47.5991 15.6432 45.3119 10.8432 41.4513 7.02719V7.02239ZM24.2753 16.0992C25.8876 16.0992 27.4221 16.1952 28.8789 16.3632C29.8161 16.4688 30.7194 16.6128 31.5789 16.7808C33.0454 17.0688 34.3906 17.4432 35.6046 17.8704C36.6049 18.2352 37.513 18.6288 38.3191 19.056C41.058 20.5008 42.6314 22.296 42.6314 24C42.6314 25.704 41.0628 27.4992 38.324 28.944C38.1443 30.4896 37.8918 31.968 37.5665 33.384C40.2713 32.3328 42.4905 30.96 44.0299 29.3568C43.5929 30.9552 42.9567 32.5056 42.1118 33.9744C41.2279 35.5296 40.1062 36.9984 38.7659 38.3232C37.4256 39.648 35.9397 40.752 34.3663 41.6304C32.8803 42.4656 31.307 43.0992 29.685 43.5312C31.3021 42.0144 32.6958 39.816 33.7641 37.1376C34.1186 36.2496 34.4343 35.3136 34.7111 34.3248C35.085 33.0048 35.3812 31.608 35.6046 30.1296C35.7503 29.2128 35.8571 28.2672 35.9348 27.2928C36.0174 26.2224 36.0611 25.1232 36.0611 24C36.0611 22.8768 36.0174 21.7728 35.9348 20.7072C34.8276 20.2368 33.5116 19.8 32.0014 19.4496C32.1713 20.8896 32.2685 22.4064 32.2685 24C32.2685 25.5936 32.1713 27.12 32.0014 28.5504C31.8945 29.4816 31.7489 30.3696 31.5789 31.2192C31.2875 32.6688 30.9136 33.9984 30.4766 35.1984C30.1172 36.1872 29.719 37.08 29.2771 37.8816C27.8251 40.5936 25.9993 42.1488 24.2753 42.1488C22.5514 42.1488 20.7304 40.5936 19.2687 37.8816C17.7051 37.7136 16.2094 37.464 14.7768 37.1376C15.8452 39.8112 17.2292 42.0048 18.8511 43.5264C17.234 43.0944 15.6558 42.4656 14.1698 41.6256C12.5965 40.752 11.1202 39.6528 9.77992 38.3232C8.43964 36.9984 7.31789 35.5296 6.43408 33.9744C5.59398 32.5056 4.94812 30.9552 4.51592 29.3616C6.05045 30.9552 8.26482 32.3328 10.9745 33.3792C11.8729 33.7296 12.8295 34.0416 13.825 34.3152C15.1605 34.6848 16.5736 34.9824 18.0693 35.1984C18.9919 35.3424 19.9486 35.448 20.9295 35.5248C22.0173 35.6064 23.139 35.6496 24.2753 35.6496C25.4117 35.6496 26.5286 35.6064 27.6163 35.5248C28.0922 34.4304 28.5293 33.1296 28.8789 31.6368C27.4221 31.8048 25.8876 31.9008 24.2753 31.9008C22.6631 31.9008 21.1189 31.8048 19.6669 31.6368C18.7297 31.5312 17.8313 31.3872 16.9718 31.2192C15.5053 30.9312 14.1504 30.5568 12.9364 30.1296C11.936 29.7696 11.0279 29.3712 10.217 28.944C7.47814 27.4992 5.90962 25.7088 5.90962 24C5.90962 22.2912 7.48299 20.5008 10.2218 19.056L10.9745 14.6256C8.25997 15.6768 6.05045 17.0496 4.51107 18.6528C4.94812 17.0544 5.58426 15.4944 6.43408 14.0256C7.31789 12.4704 8.43964 11.0016 9.77992 9.67679C11.1202 8.35199 12.6013 7.25279 14.1747 6.38399C15.6606 5.53919 17.2292 4.91039 18.8462 4.48319C17.2292 5.99999 15.8403 8.18879 14.772 10.8672C14.4175 11.76 14.1018 12.7008 13.825 13.6944C13.4511 15.0048 13.1549 16.4064 12.9315 17.8752C12.7858 18.792 12.679 19.7376 12.6013 20.712C12.5188 21.7824 12.4751 22.8816 12.4751 24.0048C12.4751 25.128 12.5188 26.2272 12.6013 27.2976C13.7085 27.768 15.0245 28.2048 16.5347 28.5552C16.3648 27.1248 16.2677 25.5984 16.2677 24.0048C16.2677 22.4112 16.3648 20.8944 16.5347 19.4544C16.6464 18.528 16.7873 17.6352 16.9669 16.7856C17.2583 15.336 17.6322 14.0064 18.0693 12.8064C18.4286 11.8176 18.8268 10.92 19.2639 10.1232C20.7304 7.41599 22.5466 5.86079 24.2705 5.86079C25.9944 5.86079 27.8106 7.41599 29.2723 10.1232C30.8359 10.2912 32.3316 10.5408 33.7641 10.8672C32.6958 8.19359 31.3021 5.99999 29.685 4.47839C31.3021 4.91039 32.8803 5.53919 34.3663 6.37919C35.9494 7.25279 37.4256 8.35679 38.7659 9.68159C40.1062 11.0064 41.2279 12.4752 42.1118 14.0304C42.9519 15.4992 43.5977 17.0544 44.0299 18.6576C42.4954 17.0592 40.2762 15.6816 37.5665 14.6256C36.6681 14.2752 35.7114 13.9632 34.7159 13.6896C33.3805 13.32 31.9674 13.0272 30.4814 12.8064C29.5539 12.6624 28.5973 12.5568 27.6163 12.48C26.5286 12.3984 25.4165 12.3552 24.2753 12.3552C23.1342 12.3552 22.0173 12.3984 20.9295 12.48C20.4633 13.5792 20.0214 14.88 19.6669 16.368C21.1237 16.2 22.6631 16.104 24.2753 16.104V16.0992Z" fill="#006D41"/>
</g>
<defs>
<clipPath id="clip0_210_65">
<rect width="207.996" height="48" fill="white"/>
</clipPath>
</defs>
</svg>
